<?xml version="1.0" encoding="iso-8859-1"?>
<!-- Generator: Adobe Illustrator 19.0.0, SVG Export Plug-In . SVG Version: 6.00 Build 0)  -->
<svg version="1.1" id="Capa_1" xmlns="http://www.w3.org/2000/svg" xmlns:xlink="http://www.w3.org/1999/xlink" x="0px" y="0px"
	 viewBox="0 0 512 512" style="enable-background:new 0 0 512 512;" xml:space="preserve">
<path style="fill:#7F838C;" d="M271,15v30c0,8.401-6.599,16-15,16c-8.401,0-15-7.599-15-16V15c0-8.401,6.599-15,15-15
	C264.401,0,271,6.599,271,15z"/>
<path style="fill:#757982;" d="M271,15v30c0,8.401-6.599,16-15,16V0C264.401,0,271,6.599,271,15z"/>
<path style="fill:#C4CAD9;" d="M361,106c0,8.401-6.599,15.3-15,15.3H166c-8.401,0-15-6.301-15-14.7V106c0-42.001,46.199-76,105-76
	S361,63.999,361,106z"/>
<path style="fill:#B8BFCC;" d="M361,106c0,8.401-6.599,15.3-15,15.3h-90V30C314.801,30,361,63.999,361,106z"/>
<path style="fill:#5C5F66;" d="M454.3,512H57.7c-30.901,0-52.5-30-42.9-59.101L27.1,416.6c4.501-13.5,15-24.001,28.5-28.5l50.7-26.7
	h299.4l53.101,27.599c11.1,3.6,21.599,14.101,26.1,27.601l12.299,36.299C506.8,482,485.2,512,454.3,512z"/>
<path style="fill:#53565C;" d="M454.3,512H256V361.399h149.7l53.101,27.599c11.1,3.6,21.599,14.101,26.1,27.601l12.299,36.299
	C506.8,482,485.2,512,454.3,512z"/>
<path style="fill:#E6EEFF;" d="M421,347c0,19.499-7.8,37.5-21.899,52.8C392.8,407,385,413.599,376,419.299
	c-7.5,5.4-15.901,9.901-24.901,13.801c-9,4.2-18.6,7.5-28.799,10.199c-15.9,4.501-33,7.201-51.3,8.1
	C266.201,452,261.099,452,256,452c-5.099,0-10.201,0-15-0.601c-18.3-0.899-35.4-3.6-51.301-8.101
	C179.5,440.6,169.9,437.3,160.901,433.1c-9-3.9-17.401-8.401-24.901-13.801c-9-5.7-16.8-12.299-23.101-19.499
	C98.8,384.5,91,366.499,91,347c0-34.801,26.4-67.2,70.499-86.4H350.5C394.6,279.8,421,312.199,421,347z"/>
<path style="fill:#DAE2F2;" d="M421,347c0,19.499-7.8,37.5-21.899,52.8C392.8,407,385,413.599,376,419.299
	c-7.5,5.4-15.901,9.901-24.901,13.801c-9,4.2-18.6,7.5-28.799,10.199c-15.9,4.501-33,7.201-51.3,8.1
	C266.201,452,261.099,452,256,452V260.6h94.501C394.6,279.8,421,312.199,421,347z"/>
<path style="fill:#FFDFB3;" d="M361,196v61c0,31.199-13.801,58.799-35.7,78.3L256,308.299L186.7,335.3
	C164.801,315.799,151,288.2,151,257v-61c0-8.401,6.599-15,15-15h180C354.401,181,361,187.599,361,196z"/>
<path style="fill:#FFCF99;" d="M361,196v61c0,31.199-13.801,58.799-35.7,78.3L256,308.299V181h90C354.401,181,361,187.599,361,196z"
	/>
<g>
	<path style="fill:#B8BFCC;" d="M161.499,380.9L136,419.299c-9-5.7-16.8-12.299-23.101-19.499l23.701-35.7
		c4.499-6.901,13.799-8.701,20.7-4.2C164.2,364.699,166,373.999,161.499,380.9z"/>
	<path style="fill:#B8BFCC;" d="M399.101,399.8C392.8,407,385,413.599,376,419.299L350.501,380.9
		c-4.501-6.901-2.701-16.201,4.199-21c6.901-4.501,16.201-2.701,20.7,4.2L399.101,399.8z"/>
	<path style="fill:#B8BFCC;" d="M351.099,433.1c-9,4.2-18.6,7.5-28.799,10.199l-23.401-37.2c-3.9-7.5-0.899-16.5,6.601-20.099
		s16.5-0.601,20.099,6.599L351.099,433.1z"/>
	<path style="fill:#B8BFCC;" d="M213.1,406.099l-23.401,37.2C179.5,440.6,169.9,437.3,160.901,433.1l25.499-40.501
		c3.6-7.2,12.599-10.199,20.099-6.599S217,398.599,213.1,406.099z"/>
</g>
<path style="fill:#6D7179;" d="M325.3,335.3c-7.5,6.599-16.199,12.299-25.499,16.8c-13.2,6.3-28.2,9.9-43.801,9.9
	s-30.601-3.6-43.801-9.901c-9.3-4.501-17.999-10.201-25.499-16.8l58.801-58.801C248.2,273.5,252.1,272,256,272
	c3.9,0,7.8,1.5,10.499,4.499L325.3,335.3z"/>
<path style="fill:#64686F;" d="M325.3,335.3c-7.5,6.599-16.199,12.299-25.499,16.8c-13.2,6.3-28.2,9.9-43.801,9.9v-90
	c3.9,0,7.8,1.5,10.499,4.499L325.3,335.3z"/>
<path style="fill:#5C5F66;" d="M395.501,167.8L361,211H151l-34.501-43.2c-28.2-28.5-8.099-76.8,31.8-76.8
	c27.301,0,50.7,4.799,79.801,21.301c8.699,5.099,18.3,7.5,27.9,7.5c9.6,0,19.2-2.401,27.9-7.5C313.001,95.799,336.4,91,363.701,91
	C403.599,91,423.701,139.3,395.501,167.8z"/>
<path style="fill:#53565C;" d="M395.501,167.8L361,211H256v-91.199c9.6,0,19.2-2.401,27.9-7.5C313.001,95.799,336.4,91,363.701,91
	C403.599,91,423.701,139.3,395.501,167.8z"/>
<path style="fill:#C4CAD9;" d="M271,407v44.399C266.201,452,261.099,452,256,452c-5.099,0-10.201,0-15-0.601V407
	c0-8.401,6.599-15,15-15C264.401,392,271,398.599,271,407z"/>
<path style="fill:#B8BFCC;" d="M271,407v44.399C266.201,452,261.099,452,256,452v-60C264.401,392,271,398.599,271,407z"/>
<g>
</g>
<g>
</g>
<g>
</g>
<g>
</g>
<g>
</g>
<g>
</g>
<g>
</g>
<g>
</g>
<g>
</g>
<g>
</g>
<g>
</g>
<g>
</g>
<g>
</g>
<g>
</g>
<g>
</g>
</svg>
