<svg id="Capa_1" enable-background="new 0 0 511.93 511.93" height="512" viewBox="0 0 511.93 511.93" width="512" xmlns="http://www.w3.org/2000/svg"><g><g><g><path d="m331.465 321.899v40.031l10.053 49.947-55.053 55.053h-60l-53.458-53.458 8.458-51.542v-40.031c0-6 3.6-11.4 9-13.801 5.4-2.399 11.7-1.199 16.201 2.701 27.299 24.901 72.299 24.901 99.598 0 4.501-3.9 10.801-5.099 16.201-2.701 5.4 2.401 9 7.801 9 13.801z" fill="#dfe7f4"/></g><g><path d="m331.465 321.899v40.031l10.053 49.947-55.053 55.053h-60l-53.458-53.458 8.458-51.542v-40.031c0-6 3.6-11.4 9-13.801 5.4-2.399 11.7-1.199 16.201 2.701 27.299 24.901 72.299 24.901 99.598 0 4.501-3.9 10.801-5.099 16.201-2.701 5.4 2.401 9 7.801 9 13.801z" fill="#f0f7ff"/></g><path d="m286.465 466.93 55.053-55.053-10.053-49.947v-40.031c0-6-3.6-11.4-9-13.801-5.4-2.399-11.7-1.199-16.201 2.701-13.65 12.45-31.724 18.675-49.799 18.675v137.456z" fill="#dfe7f4"/></g><g id="George_Washington_1_"><g><path d="m360.557 300c-8.701 0-16.787-1.655-24.082-4.907-6.826-3.032-10.371-10.635-8.32-17.827 2.227-7.793 3.311-15.073 3.311-22.266v-90c0-24.814-20.186-45-45-45h-60c-24.814 0-45 20.186-45 45v90c0 7.734 1.055 14.824 3.135 21.064 2.373 7.178-.938 15.015-7.793 18.267-7.764 3.706-16.523 5.669-25.342 5.669-33.076 0-60-26.909-60-60 0-7.295 1.348-14.429 3.926-21.138-20.128-9.726-33.927-30.322-33.927-53.862 0-26.06 16.729-48.574 40.869-56.616 23.438-64.234 85.606-108.384 154.131-108.384 68.613 0 130.957 44.355 154.453 108.853 23.438 8.306 39.639 30.63 39.639 56.147 0 23.569-13.828 44.209-34.014 53.906 2.637 6.768 4.014 13.901 4.014 21.094 0 33.091-26.924 60-60 60z" fill="#f0f7ff"/></g></g><path d="m286.465 120c24.814 0 45 20.186 45 45v90c0 7.192-1.084 14.473-3.311 22.266-2.051 7.192 1.494 14.795 8.32 17.827 7.295 3.252 15.381 4.907 24.082 4.907 33.076 0 60-26.909 60-60 0-7.192-1.377-14.326-4.014-21.094 20.186-9.697 34.014-30.337 34.014-53.906 0-25.518-16.201-47.842-39.639-56.147-23.495-64.497-85.839-108.853-154.452-108.853v120z" fill="#dfe7f4"/><g><path d="m256.465 361.93c-25.957 0-50.859-11.51-70.078-28.912-14.707-12.905-25.313-29.619-30.469-48.193-2.871-8.599-4.453-18.867-4.453-29.824v-90c0-41.353 33.633-75 75-75h60c41.367 0 75 33.647 75 75v90c0 10.02-1.465 19.995-4.482 30.527-5.742 19.028-16.377 35.479-30.791 47.783-18.868 17.109-43.77 28.619-69.727 28.619z" fill="#fdc"/></g><path d="m286.465 90h-30v271.93c25.957 0 50.859-11.51 69.727-28.619 14.414-12.305 25.049-28.755 30.791-47.783 3.018-10.532 4.482-20.508 4.482-30.527v-90c0-41.353-33.633-75.001-75-75.001z" fill="#ffbfb3"/><path d="m270.577 511.93h-29.112c-16.569 0-30-13.431-30-30v-47c0-8.284 6.716-15 15-15h59.112c8.284 0 15 6.716 15 15v47c0 16.569-13.431 30-30 30z" fill="#e64545"/><path d="m256.465 419.93v92h14.112c16.569 0 30-13.431 30-30v-47c0-8.284-6.716-15-15-15z" fill="#cc2929"/><path d="m208.752 383.759c-9.19-14.207-26.126-21.358-42.717-18.039l-122.51 24.5c-7.01 1.4-12.06 7.56-12.06 14.71v92c0 8.284 6.716 15 15 15h165c8.284 0 15-6.716 15-15v-85.79z" fill="#4d6aff"/><path d="m181.465 378.484v56.019c0 8.074-6.201 15.024-14.265 15.41-8.614.412-15.735-6.459-15.735-14.982v-66.3l14.57-2.91c.052-.01.104-.021.156-.031 7.937-1.56 15.274 4.705 15.274 12.794z" fill="#2e4de6"/><path d="m241.465 404.93v107h-30v-100.79l-45.43-45.42 27.49-5.5c4.92-.98 10 .56 13.55 4.1l30 30c2.81 2.82 4.39 6.63 4.39 10.61z" fill="#fb3"/><path d="m285.465 411.14v85.79c0 8.284 6.716 15 15 15h165c8.284 0 15-6.716 15-15v-92c0-7.15-5.05-13.31-12.06-14.71l-122.51-24.5c-16.591-3.319-33.527 3.832-42.717 18.039z" fill="#2e4de6"/><path d="m330.465 378.484v56.019c0 8.074 6.201 15.024 14.265 15.41 8.614.412 15.735-6.459 15.735-14.982v-66.3l-14.57-2.91c-.052-.01-.104-.021-.156-.031-7.937-1.56-15.274 4.705-15.274 12.794z" fill="#1f1f99"/><path d="m270.465 404.93v107h30v-100.79l45.43-45.42-27.49-5.5c-4.92-.98-10 .56-13.55 4.1l-30 30c-2.81 2.82-4.39 6.63-4.39 10.61z" fill="#e68a2e"/></g></svg>