<svg id="Capa_1" enable-background="new 0 0 504.5 504.5" height="512" viewBox="0 0 504.5 504.5" width="512" xmlns="http://www.w3.org/2000/svg"><g><path d="m214.75 285v196.592l-24.87 8.29c-3.93 1.31-6.053 5.557-4.744 9.487 1.31 3.93 5.559 6.054 9.487 4.744l29.998-10c3.063-1.021 5.128-3.887 5.128-7.115v-201.998z" fill="#fff0d3"/><path d="m289.75 285v196.592l24.87 8.29c3.93 1.31 6.053 5.557 4.744 9.487-1.31 3.93-5.559 6.054-9.487 4.744l-29.998-10c-3.063-1.021-5.128-3.887-5.128-7.115v-201.998z" fill="#ffd9d4"/><path d="m177.25 177.5c-37.22 0-67.5-30.28-67.5-67.5 0-4.142-3.357-7.5-7.5-7.5s-7.5 3.358-7.5 7.5c0 45.491 37.01 82.5 82.5 82.5h15v-15z" fill="#dbf4ff"/><path d="m402.25 102.5c-4.143 0-7.5 3.358-7.5 7.5 0 37.22-30.28 67.5-67.5 67.5h-15v15h15c45.49 0 82.5-37.009 82.5-82.5 0-4.142-3.358-7.5-7.5-7.5z" fill="#a8e5ff"/><path d="m297.25 10-22.5 5-22.5-15-15 61.189h49.69z" fill="#ffa754"/><path d="m229.75 15-22.5-5 10.31 51.189h34.69v-61.189z" fill="#ffcb63"/><path d="m207.25 90.488c-10.391 0-19.132 7.045-21.718 16.618-4.906 2.462-8.282 7.518-8.282 13.382 0 8.284 6.716 15 15 15h60v-45z" fill="#85453d"/><path d="m318.968 107.107c-2.586-9.573-11.327-16.618-21.718-16.618h-45v45h60c8.284 0 15-6.716 15-15 0-5.865-3.376-10.921-8.282-13.382z" fill="#60312c"/><path d="m266.342 74.547-14.092 60.453c24.853 0 45-20.147 45-45z" fill="#ffd9d4"/><path d="m267.25 90c0-5.429-.321-10.634-.908-15.453l-41.095-20.546c-10.927 8.21-17.997 21.278-17.997 35.999 0 24.853 20.147 45 45 45 8.284 0 15-20.147 15-45z" fill="#fff0d3"/><path d="m252.25 45 14.899 39.832c9.412 3.341 19.542 5.168 30.101 5.168 0-24.853-20.147-45-45-45z" fill="#60312c"/><path d="m252.25 45c-10.132 0-19.481 3.35-27.003 9.002 10.532 14.02 25.066 24.856 41.901 30.831-.854-22.418-7.197-39.833-14.898-39.833z" fill="#85453d"/><path d="m192.25 165c-8.284 0-15 6.716-15 15v20c0 8.284 6.716 15 15 15s15-6.716 15-15l15-15h-15v-5c0-8.285-6.716-15-15-15z" fill="#dbf4ff"/><path d="m312.25 165c8.284 0 15 6.716 15 15v20c0 8.284-6.716 15-15 15s-15-6.716-15-15l-15-15h15v-5c0-8.285 6.716-15 15-15z" fill="#a8e5ff"/><path d="m311.998 289.177c-1.186-13.05-6.555-24.888-14.749-34.177v-70c0-11.046-8.954-20-20-20h-30v90l50 202h30z" fill="#a8e5ff"/><path d="m281.998 289.177c-1.186-13.05-6.555-24.888-14.749-34.177v-70c0-11.046-8.954-20-20-20h-10l-28.966 13.684c-.662 1.987-1.034 4.106-1.034 6.316v70c-8.194 9.289-13.563 21.127-14.749 34.177l-15.25 167.823h120z" fill="#dbf4ff"/><path d="m297.25 225c-10.933 0-21.173-2.938-30-8.047l-15 16.451 15 16.451c9.386 3.319 19.477 5.145 30 5.145z" fill="#eb1b00"/><path d="m237.25 165h-10.002c-8.835.001-16.318 5.738-18.964 13.684 5.052 33.119 28.165 60.28 58.966 71.171v-32.902c-17.929-10.376-30-29.748-30-51.953z" fill="#ff4128"/></g></svg>