<svg id="Layer_1" enable-background="new 0 0 512 512" height="512" viewBox="0 0 512 512" width="512" xmlns="http://www.w3.org/2000/svg"><g><path d="m256.004 512c-2.146 0-4.292-.46-6.286-1.38l-208.866-96.4c-6.396-2.952-9.876-9.957-8.365-16.837s7.606-11.782 14.651-11.782c36.081 0 65.333-29.175 65.333-65.317 0-8.284 6.716-15.008 15-15.008h257.066c8.284 0 15 6.708 15 14.992 0 36.147 29.243 65.333 65.317 65.333 7.044 0 13.147 4.902 14.659 11.782s-1.961 13.885-8.357 16.837l-208.866 96.4c-1.995.92-4.14 1.38-6.286 1.38z" fill="#848c90"/><path d="m471.156 414.22c6.396-2.952 9.868-9.957 8.357-16.837s-7.614-11.782-14.659-11.782c-36.075 0-65.317-29.187-65.317-65.333 0-8.284-6.716-14.992-15-14.992h-128.533v206.724c2.146 0 4.292-.46 6.286-1.38z" fill="#58646a"/><path d="m400.604 238.867h-289.2c-8.284 0-15-6.716-15-15v-80.333c0-61.526 49.772-111.4 111.4-111.4 6.354 0 12.327-2.474 16.819-6.966l20.774-20.774c2.813-2.813 6.629-4.394 10.607-4.394s7.793 1.581 10.606 4.394l20.774 20.774c4.492 4.492 10.465 6.965 16.819 6.965 61.538 0 111.4 49.78 111.4 111.4v80.333c.001 8.285-6.715 15.001-14.999 15.001z" fill="#b0b4b6"/><path d="m415.604 223.867v-80.333c0-61.62-49.861-111.4-111.4-111.4-6.354 0-12.327-2.474-16.819-6.965l-20.775-20.775c-2.813-2.813-6.628-4.394-10.606-4.394v238.867h144.6c8.284 0 15-6.716 15-15z" fill="#848c90"/><path d="m256.004 238.867c-1.222 0-2.444-.149-3.638-.448l-80.333-20.083c-6.677-1.669-11.362-7.669-11.362-14.552v-64.267c0-4.619 2.128-8.98 5.769-11.823 3.64-2.842 8.387-3.849 12.869-2.729l76.695 19.174 76.695-19.174c4.481-1.12 9.229-.114 12.869 2.729 3.641 2.843 5.769 7.204 5.769 11.823v64.267c0 6.883-4.685 12.883-11.362 14.552l-80.333 20.083c-1.194.298-2.416.448-3.638.448z" fill="#2c3c44"/><path d="m339.976 218.335c6.677-1.669 11.362-7.669 11.362-14.552v-64.267c0-4.619-2.128-8.98-5.769-11.823-3.64-2.843-8.388-3.849-12.869-2.729l-76.695 19.174v94.728c1.222 0 2.444-.149 3.638-.448z" fill="#00141e"/><path d="m256.004 399.533c-2.489 0-4.978-.619-7.229-1.857l-160.667-88.366c-4.793-2.636-7.771-7.673-7.771-13.143v-112.467c0-4.619 2.128-8.98 5.769-11.823 3.641-2.842 8.387-3.848 12.869-2.729l157.028 39.257 157.028-39.257c4.483-1.119 9.229-.113 12.869 2.729 3.641 2.843 5.769 7.204 5.769 11.823v112.466c0 5.47-2.978 10.507-7.771 13.143l-160.667 88.367c-2.249 1.239-4.738 1.857-7.227 1.857z" fill="#cacac8"/><path d="m423.899 309.31c4.793-2.636 7.771-7.673 7.771-13.143v-112.467c0-4.619-2.128-8.98-5.769-11.823-3.641-2.842-8.386-3.848-12.869-2.729l-157.028 39.257v191.128c2.489 0 4.978-.619 7.229-1.857z" fill="#b0b4b6"/></g></svg>