<svg height="512pt" viewBox="0 0 512 512.36717" width="512pt" xmlns="http://www.w3.org/2000/svg"><path d="m339.867188 372.363281c7.328124-20.699219 5.792968-43.5-4.234376-63.03125-14.917968-29.835937-10.945312-65.851562-9.359374-76.445312.355468-1.941407.53125-7.417969.53125-7.417969h-300.136719s8.824219 48.554688-8.828125 83.863281c-15.714844 31.425781-10.417969 69.914063 15.886718 90.394531l325.433594 19.785157zm0 0" fill="#7f5b53"/><path d="m326.714844 198.988281c.089844-1.5.089844-16.242187.089844-17.65625-.09375-43.75-20.152344-85.0625-54.464844-112.199219l-95.605469-17.652343-95.601563 17.652343c-34.316406 27.136719-54.371093 68.449219-54.464843 112.199219 0 1.414063 0 16.15625.085937 17.65625zm0 0" fill="#af8066"/><path d="m308.53125 194.574219h18.273438c9.722656.070312 17.585937 7.933593 17.65625 17.65625-.03125 9.738281-7.917969 17.625-17.65625 17.652343h-300.136719c-9.742188-.027343-17.628907-7.914062-17.65625-17.652343.070312-9.722657 7.933593-17.585938 17.65625-17.65625zm0 0" fill="#f09372"/><path d="m136.746094 371.125h79.976562l54.554688 2.738281c18.167968 4.15625 34.898437 13.085938 48.464844 25.863281 2.207031 2.03125 4.238281 4.148438 6.355468 6.445313l19.246094 30.632813c5.304688 12.753906 8.003906 26.4375 7.941406 40.253906v17.652344c-.027344 9.738281-7.914062 17.628906-17.652344 17.65625h-317.792968c-9.738282-.027344-17.628906-7.917969-17.65625-17.65625v-17.652344c.003906-49.289063 33.996094-92.0625 82.007812-103.195313zm0 0" fill="#464f5d"/><path d="m126.472656 371.125 50.261719 61.085938 48.550781-61.085938zm0 0" fill="#bdc3c7"/><path d="m203.21875 324.605469v67.175781l-26.484375 40.429688-26.480469-40.429688v-67.175781zm0 0" fill="#fdd7ad"/><path d="m203.21875 324.605469v13.242187c-17.511719 3.175782-35.453125 3.175782-52.964844 0v-13.242187zm0 0" fill="#f09372"/><path d="m247.355469 88.644531s35.3125-17.65625 35.3125-44.140625c0-26.480468-46.753907-15.691406-46.753907-15.691406s-12.425781-56.890625-59.179687-10.789062c-46.753906-46.101563-59.175781 10.789062-59.175781 10.789062s-46.753906-10.789062-46.753906 15.691406c0 26.484375 35.308593 44.140625 35.308593 44.140625 40.460938-35.3125 100.78125-35.3125 141.242188 0zm0 0" fill="#e6e7e8"/><g fill="#ecf0f1"><path d="m176.734375 432.210938-35.308594 44.847656-61.792969-107.699219 37.515626-15.269531c3.878906-1.585938 8.335937-.171875 10.59375 3.351562l22.511718 34.339844zm0 0"/><path d="m273.839844 369.359375-61.792969 107.699219-35.3125-44.847656 26.484375-40.429688 22.507812-34.339844c2.261719-3.523437 6.71875-4.9375 10.59375-3.351562zm0 0"/><path d="m185.5625 485.882812c0 4.875-3.953125 8.828126-8.828125 8.828126s-8.828125-3.953126-8.828125-8.828126 3.953125-8.824218 8.828125-8.824218 8.828125 3.949218 8.828125 8.824218zm0 0"/></g><path d="m362.375 394.839844c-37.453125-37.453125 0-87.394532 24.96875-99.875 24.96875-12.476563 18.726562-43.695313 18.726562-43.695313s24.964844 0 37.449219 12.484375c0 0-6.242187 31.210938-18.726562 43.695313 0 0 31.210937-6.242188 43.699219-31.207031 22.871093 16.398437 38.523437 40.996093 43.691406 68.660156-20.214844-2.855469-40.089844 7.082031-49.9375 24.96875-14.359375 23.941406-49.933594 74.902344-99.871094 24.96875zm0 0" fill="#fac176"/><path d="m362.375 403.667969c-3.570312 0-6.789062-2.152344-8.15625-5.449219s-.609375-7.09375 1.914062-9.617188l24.972657-24.972656c3.449219-3.445312 9.035156-3.445312 12.484375 0 3.445312 3.449219 3.445312 9.035156 0 12.484375l-24.972656 24.96875c-1.65625 1.660157-3.902344 2.589844-6.242188 2.585938zm0 0" fill="#f18d46"/><path d="m349.890625 382.355469 24.96875 24.964843-99.871094 99.875c-6.894531 6.894532-18.074219 6.894532-24.96875 0-6.894531-6.894531-6.894531-18.074218 0-24.96875zm0 0" fill="#af8066"/><path d="m387.339844 428.632812c-2.34375.003907-4.589844-.925781-6.242188-2.585937l-49.933594-49.933594c-2.285156-2.21875-3.199218-5.496093-2.390624-8.578125.808593-3.082031 3.214843-5.488281 6.296874-6.296875 3.082032-.808593 6.359376.105469 8.578126 2.390625l49.933593 49.9375c2.523438 2.523438 3.277344 6.320313 1.910157 9.617188-1.367188 3.300781-4.582032 5.449218-8.152344 5.449218zm0 0" fill="#cb9080"/><path d="m282.667969 44.503906c0 26.484375-35.3125 44.140625-35.3125 44.140625-19.484375-17.210937-44.625-26.636719-70.621094-26.484375v-44.136718c46.789063-46.082032 59.144531 10.769531 59.144531 10.769531s46.789063-10.769531 46.789063 15.710937zm0 0" fill="#ecf0f1"/><path d="m309.148438 205.960938c-.011719 4.1875-.246094 8.371093-.707032 12.535156-.441406 3.796875-1.058594 7.59375-1.851562 11.300781-12.421875 49.417969-53.066406 86.695313-103.371094 94.808594-17.511719 3.175781-35.453125 3.175781-52.964844 0-50.457031-8.054688-91.179687-45.546875-103.371094-95.164063-.796874-3.617187-1.414062-7.238281-1.855468-10.945312-.457032-4.164063-.695313-8.347656-.707032-12.535156-.019531-3.804688.1875-7.605469.617188-11.386719.265625-3.179688.796875-6.355469 1.324219-9.535157.621093-3.089843 1.414062-6.089843 2.207031-9.089843v-.089844l4.679688-25.421875c75.917968-18.714844 88.277343-52.96875 88.277343-52.96875s35.308594 52.96875 141.242188 44.140625c9.199219 10.792969 16.835937 22.828125 22.683593 35.75.707032 2.5625 1.324219 5.121094 1.855469 7.679687.53125 3.179688 1.058594 6.355469 1.324219 9.535157.429688 3.78125.636719 7.582031.617188 11.386719zm0 0" fill="#fdd7ad"/></svg>