<svg id="Capa_1" enable-background="new 0 0 512 512" height="512" viewBox="0 0 512 512" width="512" xmlns="http://www.w3.org/2000/svg"><g><path d="m351.607 326.484s-191.388.098-191.475.146c-59.458 33.584-99.694 97.374-99.694 170.395v14.975h391.122v-14.974c.001-73.127-40.352-136.997-99.953-170.542z" fill="#fd657d"/><g><path d="m451.561 497.026c0-73.127-40.353-136.997-99.953-170.542 0 0-47.782.024-95.607.055v185.461h195.561v-14.974z" fill="#e33a53"/></g><path d="m256 301.465c-34.803 0-67.504 9.149-95.845 25.152v185.383h191.457v-185.513c-28.287-15.922-60.904-25.022-95.612-25.022z" fill="#f2f2f2"/><g><path d="m351.612 326.487c-28.287-15.922-60.905-25.022-95.612-25.022v210.535h95.612z" fill="#e7e7f2"/></g><path d="m293.233 381.652h-22.259v-22.691h-29.949v22.691h-22.258v29.949h22.258v44.627h29.949v-44.627h22.259z" fill="#fed843"/><g><path d="m270.974 381.652v-22.691h-14.974v97.267h14.974v-44.627h22.259v-29.949z" fill="#fabe2c"/></g><path d="m170.574 202.417v42.435c0 47.35 38.522 85.872 85.872 85.872s85.872-38.522 85.872-85.872v-41.533z" fill="#fdd0a7"/><g><path d="m256 202.866v127.847c.149.001.296.011.446.011 47.35 0 85.872-38.522 85.872-85.872v-41.533z" fill="#fcbc8a"/></g><g><path d="m343.705 86.024c-8.89-21.731-23.697-40.416-42.82-54.038l-44.902-31.986-44.412 31.971c-18.966 13.653-33.638 32.314-42.433 53.965-8.763 21.573-11.272 45.088-7.262 68.021l8.653 60.26h171.971l8.583-59.889c4.03-23.041 1.48-46.653-7.378-68.304z" fill="#f2f2f2"/><g><path d="m343.705 86.024c-8.89-21.731-23.697-40.416-42.82-54.038l-44.885-31.974v214.204h86.5l8.583-59.889c4.03-23.04 1.48-46.652-7.378-68.303z" fill="#e7e7f2"/></g><path d="m271.003 188.737v-178.037l-15.02-10.7-14.929 10.747v177.99z" fill="#fed843"/><path d="m165.01 175.78 5.519 38.437h171.971l5.509-38.437z" fill="#fabe2c"/><g><path d="m271.003 10.7-15.003-10.688v188.725h15.003z" fill="#fabe2c"/></g><g><path d="m348.009 175.78h-92.009v38.437h86.5z" fill="#fd9025"/></g></g></g></svg>